<svg width="31" height="48" viewBox="0 0 31 48" fill="none" xmlns="http://www.w3.org/2000/svg">
<path d="M9.43285 39.616C8.34019 38.5491 7.79514 36.842 7.79514 34.5975V30C7.79514 28.8954 6.89971 28 5.79514 28H2C0.895432 28 0 28.8954 0 30V37.2173C0 38.2843 0.218496 39.4592 0.604141 40.737C1.07831 42.0889 1.88456 43.3001 2.94887 44.2592C4.09295 45.3313 5.67666 46.2389 7.6923 46.933C9.70794 47.6272 12.3303 48 15.544 48C18.7629 48 21.3801 47.6272 23.3984 46.933C25.4166 46.2389 26.9977 45.3313 28.1418 44.2592C29.3424 43.1948 30.1034 42.0225 30.4891 40.737C30.8696 39.4566 31.0856 38.2817 31.0856 37.2148V10V2C31.0856 0.895431 30.1901 0 29.0856 0H2.23559C1.13103 0 0.235596 0.89543 0.235596 2V5.5C0.235596 6.60457 1.13103 7.5 2.2356 7.5H21.666C22.7791 7.5 23.678 8.40877 23.6659 9.52179L23.3932 34.5487C23.3932 36.6826 22.8482 38.3357 21.7606 39.5106C20.6654 40.6856 18.5932 41.2717 15.5389 41.2717C12.5437 41.2717 10.5229 40.7396 9.43285 39.616Z" fill="#0A3871"/>
</svg>
